<?xml version="1.0" standalone="no"?>
<!DOCTYPE svg PUBLIC "-//W3C//DTD SVG 20010904//EN"
 "http://www.w3.org/TR/2001/REC-SVG-20010904/DTD/svg10.dtd">
<svg version="1.0" xmlns="http://www.w3.org/2000/svg"
 width="470.000000pt" height="470.000000pt" viewBox="0 0 470.000000 470.000000"
 preserveAspectRatio="xMidYMid meet">

<g transform="translate(0.000000,470.000000) scale(0.100000,-0.100000)"
fill="#000000" stroke="none">
<path d="M2336 4413 c-3 -10 -9 -25 -12 -33 -4 -8 3 -3 15 12 23 28 26 38 12
38 -5 0 -11 -8 -15 -17z"/>
<path d="M2114 4403 c10 -11 56 -11 56 -1 0 4 -14 8 -32 8 -17 0 -28 -3 -24
-7z"/>
<path d="M2401 4387 c-1 -16 -8 -30 -18 -34 -10 -4 -24 -13 -31 -20 -19 -18
-46 -17 -38 2 6 16 -9 21 -18 6 -3 -5 -30 -15 -58 -22 -29 -6 -62 -18 -74 -26
-11 -7 -23 -11 -26 -8 -2 3 -12 -3 -21 -13 -13 -15 -26 -17 -59 -12 -24 3 -51
1 -62 -5 -14 -7 -20 -7 -23 2 -3 9 -10 9 -28 -3 -16 -11 -24 -12 -27 -3 -2 7
-15 9 -35 5 -24 -6 -30 -11 -26 -27 3 -10 0 -19 -6 -19 -6 0 -11 6 -11 13 0 7
-9 18 -20 25 -18 11 -20 10 -20 -14 0 -25 -1 -26 -17 -12 -19 17 -133 35 -133
21 0 -4 -28 -9 -61 -10 -41 -2 -68 -8 -80 -19 -10 -9 -25 -14 -34 -10 -15 5
-73 -22 -105 -49 -25 -21 -78 -45 -99 -45 -11 0 -23 -5 -27 -12 -5 -8 -2 -9
11 -5 12 5 26 -1 43 -18 13 -14 33 -25 43 -25 23 0 25 -18 4 -26 -10 -4 -12
-11 -6 -22 16 -29 -97 -107 -128 -88 -5 4 -12 20 -16 36 -9 41 -25 48 -25 11
0 -37 -6 -38 -31 -8 l-19 22 3 -22 c2 -11 9 -28 16 -37 25 -30 1 -30 -30 0
-26 24 -30 25 -20 7 6 -12 16 -25 22 -29 8 -4 7 -9 -2 -14 -9 -6 -2 -13 22
-24 19 -8 45 -23 58 -34 24 -19 24 -20 4 -30 -11 -6 -34 -9 -52 -7 -25 3 -32
1 -27 -10 6 -17 -23 -28 -50 -20 -17 6 -16 5 1 -7 12 -7 19 -21 17 -31 -3 -15
-6 -16 -18 -6 -11 9 -18 9 -26 1 -7 -7 -24 -12 -39 -12 -32 0 -46 -15 -24 -24
26 -10 16 -24 -15 -22 -36 3 -36 2 -9 -23 28 -26 9 -34 -35 -16 -48 20 -57 19
-23 -4 l29 -18 -34 -13 c-32 -11 -32 -12 -11 -21 13 -4 23 -13 23 -19 0 -7 8
-9 20 -5 14 5 20 2 20 -10 0 -12 4 -14 19 -5 25 13 31 13 31 0 0 -5 -6 -10
-13 -10 -7 0 -22 -6 -32 -14 -15 -11 -17 -17 -7 -28 10 -13 4 -15 -39 -17 -28
-1 -66 4 -85 11 -18 6 -37 8 -41 4 -10 -10 27 -37 40 -29 5 3 13 0 17 -7 4 -7
28 -15 53 -17 46 -5 46 -6 24 -23 -33 -27 -15 -34 26 -10 60 36 81 1 24 -38
-30 -20 -39 -21 -85 -12 -50 9 -121 41 -171 77 -24 17 -24 17 -13 -3 6 -12 21
-28 34 -36 13 -9 48 -39 78 -68 53 -50 54 -51 20 -37 -36 14 -65 12 -54 -4 3
-5 -5 -9 -18 -9 -16 0 -19 -3 -10 -9 10 -6 8 -10 -9 -14 -13 -3 -28 -2 -35 4
-8 6 -14 7 -18 0 -4 -5 -2 -12 4 -16 15 -9 12 -28 -3 -22 -21 8 -17 -25 5 -49
10 -12 21 -40 23 -63 3 -38 2 -41 -16 -36 -21 7 -28 -20 -6 -28 10 -4 10 -6 0
-6 -7 -1 -13 -7 -13 -14 0 -12 -6 -14 -65 -18 -21 -1 -23 -4 -14 -15 7 -8 19
-12 29 -9 10 3 26 -5 40 -20 26 -28 17 -34 -12 -8 -15 13 -18 14 -13 2 3 -8
19 -23 36 -33 18 -11 28 -23 25 -32 -3 -8 -1 -14 4 -14 6 0 10 -5 10 -11 0 -6
-9 -8 -20 -4 -15 5 -18 3 -14 -9 3 -8 19 -18 35 -21 36 -8 28 -25 -12 -25 -18
0 -28 -4 -24 -10 9 -14 51 -13 75 2 15 10 22 10 32 0 9 -9 7 -12 -11 -12 -14
0 -21 -5 -18 -12 2 -7 14 -12 25 -10 12 2 22 -2 22 -8 0 -7 -7 -10 -15 -6 -9
3 -15 0 -15 -9 0 -8 -8 -15 -17 -15 -17 -1 -17 -1 0 -14 10 -8 15 -20 11 -30
-3 -9 -1 -16 4 -16 6 0 12 7 14 15 2 10 7 12 18 5 13 -8 12 -11 -4 -23 -22
-16 -13 -39 11 -30 11 4 14 3 9 -5 -9 -15 9 -15 34 -2 15 8 21 6 30 -11 10
-17 8 -24 -11 -40 -12 -10 -34 -20 -48 -20 -18 -1 -20 -3 -8 -6 10 -3 36 3 58
11 l41 16 29 -31 c16 -17 29 -33 29 -36 0 -3 10 -13 23 -23 12 -10 33 -44 46
-76 47 -117 53 -93 16 66 -31 134 -32 158 -3 162 13 2 28 16 37 33 8 17 18 37
21 45 4 8 16 14 26 13 11 -1 43 2 72 7 63 11 89 5 70 -18 -27 -33 29 7 61 43
23 27 31 31 31 18 0 -24 -65 -83 -93 -84 -12 -1 -26 -2 -32 -4 -5 -1 -21 -3
-35 -4 l-25 -2 23 -13 c21 -11 22 -14 8 -25 -9 -7 -13 -18 -9 -24 3 -6 1 -7
-6 -3 -12 8 -71 -45 -71 -63 0 -17 30 -13 57 9 14 11 28 18 32 16 3 -2 29 -6
56 -10 36 -4 44 -3 28 4 -33 13 -28 20 14 20 20 0 33 -3 30 -6 -4 -4 3 -20 14
-35 24 -35 18 -66 -16 -75 -36 -9 -77 -66 -100 -141 -10 -37 0 -27 36 33 19
30 48 64 65 75 38 23 51 25 34 4 -11 -13 -8 -14 20 -8 28 5 32 3 27 -9 -3 -9
-1 -20 4 -25 7 -7 0 -14 -19 -22 -64 -27 -140 -137 -114 -163 9 -9 12 -8 12 5
0 9 6 17 13 17 7 0 21 16 32 37 17 31 66 73 86 73 4 0 10 -20 13 -44 4 -24 16
-52 26 -61 28 -26 25 -32 -19 -40 -26 -4 -51 -1 -76 9 -46 20 -51 20 -36 2 6
-7 29 -16 51 -20 22 -3 40 -12 40 -19 0 -7 10 -17 23 -22 14 -7 21 -18 20 -32
-3 -25 15 -33 84 -38 25 -1 48 -7 52 -12 7 -12 41 -13 41 -1 0 4 5 8 10 8 14
0 33 15 85 66 33 32 43 51 48 85 3 24 1 52 -5 63 -11 20 -10 20 14 4 14 -9 28
-14 32 -11 17 18 -11 164 -35 178 -4 3 -6 12 -3 19 3 8 -5 16 -20 20 -14 3
-26 13 -26 21 0 8 -6 18 -13 22 -8 4 -17 19 -20 33 -4 19 0 29 18 42 28 21 95
34 95 19 0 -6 6 -11 13 -11 7 0 23 -13 35 -30 13 -16 31 -30 41 -30 11 0 29
-15 42 -36 19 -32 21 -44 15 -107 -4 -39 -13 -78 -20 -86 -9 -11 -14 -45 -15
-105 -1 -49 -6 -108 -11 -132 -5 -23 -12 -64 -15 -91 -3 -26 -10 -64 -15 -83
-6 -19 -10 -54 -10 -78 0 -30 -3 -41 -12 -36 -8 5 -9 2 -5 -10 4 -10 7 -43 7
-73 0 -51 3 -58 37 -89 28 -26 33 -34 19 -34 -15 0 -16 -3 -6 -15 17 -20 25
-146 12 -172 -8 -15 -7 -27 4 -47 17 -35 17 -36 0 -36 -9 0 -14 -12 -14 -36 0
-40 -16 -56 -49 -51 -16 3 -23 -2 -27 -17 -2 -12 -4 -4 -2 16 1 21 -1 38 -4
38 -4 0 -32 -25 -62 -55 -47 -47 -60 -55 -81 -50 -27 7 -71 -15 -81 -41 -3 -9
-2 -24 4 -34 8 -15 18 -17 52 -12 24 3 48 13 56 23 12 17 50 30 107 35 17 2
44 6 60 10 17 4 27 3 23 -1 -4 -4 3 -16 15 -26 l22 -18 -22 -1 c-20 0 -21 -4
-18 -82 2 -49 -1 -85 -7 -89 -13 -8 -13 -72 1 -96 9 -16 11 -16 12 7 1 19 4
14 12 -17 7 -24 19 -51 28 -61 26 -31 19 -66 -16 -74 -16 -4 -309 -5 -650 -2
l-620 6 50 -51 c92 -96 43 -88 615 -94 278 -3 513 -8 522 -12 10 -4 15 -11 12
-16 -3 -5 4 -9 14 -9 38 0 42 -20 44 -251 l3 -224 80 -13 c44 -7 157 -13 250
-15 l170 -2 2 190 c2 225 2 216 14 185 10 -24 19 -173 19 -307 l0 -66 78 7
c240 21 525 96 737 195 l90 42 -3 247 c-1 136 -3 275 -5 310 -1 34 1 62 6 62
4 0 6 19 5 43 l-1 42 -4 -39 c-3 -23 -8 -35 -12 -28 -4 7 -4 36 1 65 4 28 10
74 14 102 6 57 11 66 24 45 7 -11 10 -5 9 20 0 26 -2 30 -8 16 -7 -18 -8 -18
-14 -2 -9 23 1 39 19 32 14 -5 20 24 16 84 -1 17 1 21 7 12 5 -9 10 -1 15 26
l6 40 65 4 c53 3 71 9 102 34 51 40 112 163 142 289 13 55 38 147 56 205 58
186 57 265 -2 353 -32 47 -34 55 -28 101 4 28 11 56 15 61 4 6 13 33 20 60 7
28 17 55 22 61 5 7 4 22 -2 35 -8 19 -6 42 11 104 23 82 24 108 16 230 -5 76
-6 79 -49 174 -15 35 -28 73 -28 85 0 11 -9 35 -19 52 -10 17 -22 49 -25 70
-6 33 -3 43 13 59 31 27 26 42 -16 48 -32 5 -43 14 -65 52 -16 25 -28 50 -28
55 0 6 -5 10 -11 10 -5 0 -7 -5 -3 -11 17 -29 -37 15 -72 57 -22 26 -45 53
-51 60 -7 7 -13 20 -13 28 0 9 -4 16 -8 16 -14 0 -92 82 -86 91 3 5 0 9 -5 9
-6 0 -11 9 -11 19 0 11 -4 22 -9 25 -4 3 -10 27 -13 54 -5 50 -36 132 -50 132
-4 0 -8 -18 -8 -40 0 -45 -8 -49 -33 -19 -19 21 -54 22 -50 1 3 -14 -16 -16
-35 -3 -11 6 -10 15 1 49 8 23 13 42 12 42 -2 0 -12 -15 -24 -32 l-21 -33 0
29 c0 21 -4 27 -16 22 -9 -3 -41 9 -75 29 -33 19 -64 35 -68 35 -5 0 -11 7
-15 15 -3 8 -12 15 -19 15 -19 0 -43 29 -50 61 -5 19 -13 25 -29 25 -20 -1
-23 3 -20 29 4 33 48 105 65 105 6 0 8 2 5 5 -9 9 -38 -7 -38 -21 0 -8 -5 -14
-10 -14 -6 0 -15 -11 -20 -25 -5 -14 -13 -25 -18 -25 -17 0 1 54 25 76 23 21
23 23 5 21 -12 0 -20 -6 -19 -11 1 -6 -8 -15 -20 -21 -13 -5 -23 -13 -23 -17
0 -5 -7 -8 -15 -8 -8 0 -15 5 -15 10 0 6 -6 10 -13 10 -7 0 -18 9 -25 21 -8
12 -19 18 -28 15 -22 -8 -17 2 7 15 12 6 19 7 16 2 -3 -5 3 -15 15 -22 16 -10
18 -10 12 0 -5 8 -2 11 8 7 8 -4 20 2 26 13 11 17 9 19 -10 20 -22 1 -22 1 3
10 16 6 40 6 65 0 21 -5 31 -9 22 -10 -27 -1 -22 -18 5 -17 12 1 27 8 34 16
11 13 12 13 13 -1 0 -9 7 -20 16 -23 27 -10 36 -7 29 12 -4 9 -8 26 -10 37 -1
17 -14 22 -101 34 -103 15 -181 9 -139 -10 14 -7 9 -8 -20 -4 -24 2 -35 1 -26
-4 10 -7 10 -10 1 -16 -7 -4 -16 -2 -20 6 -6 9 -12 10 -22 2 -7 -6 -29 -14
-48 -18 l-35 -7 19 21 c11 12 16 24 13 28 -4 3 -7 1 -7 -6 0 -8 -7 -11 -15 -7
-9 3 -18 0 -20 -7 -6 -15 -122 -17 -146 -2 -9 6 -19 19 -22 30 -3 15 -5 13 -6
-8z m214 -77 c3 -5 -1 -10 -10 -10 -9 0 -13 5 -10 10 3 6 8 10 10 10 2 0 7 -4
10 -10z m-336 -3 c-2 -1 -12 -9 -22 -16 -15 -12 -17 -12 -11 3 3 9 13 16 22
16 8 0 13 -1 11 -3z m-96 -52 c-10 -13 -24 -25 -30 -25 -18 0 -16 6 9 30 30
28 43 25 21 -5z m-223 -25 c0 -5 -2 -10 -4 -10 -3 0 -8 5 -11 10 -3 6 -1 10 4
10 6 0 11 -4 11 -10z m801 -31 c37 -39 46 -58 33 -72 -11 -11 -33 4 -27 19 3
8 -1 14 -10 14 -9 0 -18 9 -22 19 -3 11 -12 22 -20 25 -17 6 -20 36 -4 36 6 0
28 -18 50 -41z m24 31 c3 -5 -1 -10 -10 -10 -9 0 -13 5 -10 10 3 6 8 10 10 10
2 0 7 -4 10 -10z m-645 -25 c0 -20 -12 -24 -40 -13 l-25 9 25 14 c27 15 40 11
40 -10z m-95 -5 c0 -8 -8 -16 -17 -18 -13 -2 -18 3 -18 18 0 15 5 20 18 18 9
-2 17 -10 17 -18z m780 -27 c15 -14 14 -54 0 -53 -5 1 -9 12 -7 25 2 12 -2 26
-7 30 -6 3 -11 14 -10 23 0 14 2 14 6 2 4 -8 12 -20 18 -27z m-740 7 c3 -5 1
-10 -4 -10 -6 0 -11 5 -11 10 0 6 2 10 4 10 3 0 8 -4 11 -10z m-75 -40 c0 -5
-2 -10 -4 -10 -3 0 -8 5 -11 10 -3 6 -1 10 4 10 6 0 11 -4 11 -10z m68 -4 c-7
-8 -15 -12 -17 -11 -5 6 10 25 20 25 5 0 4 -6 -3 -14z m-511 -22 c-3 -3 -12
-4 -19 -1 -8 3 -5 6 6 6 11 1 17 -2 13 -5z m-235 -36 c-9 -9 -15 -9 -24 0 -9
9 -7 12 12 12 19 0 21 -3 12 -12z m33 2 c3 -5 1 -10 -4 -10 -6 0 -11 5 -11 10
0 6 2 10 4 10 3 0 8 -4 11 -10z m425 -6 c0 -8 -5 -12 -10 -9 -6 4 -8 11 -5 16
9 14 15 11 15 -7z m-380 -43 c0 -6 -4 -13 -10 -16 -5 -3 -10 1 -10 9 0 9 5 16
10 16 6 0 10 -4 10 -9z m53 -17 c-6 -17 -23 -9 -23 11 0 8 6 12 14 9 8 -3 12
-12 9 -20z m68 -45 c-16 -6 -28 -6 -35 1 -7 7 1 10 25 9 32 0 33 -1 10 -10z
m-231 -75 c0 -8 -8 -10 -22 -6 -20 5 -21 3 -11 -10 12 -14 8 -28 -9 -28 -11 0
-10 34 2 46 15 15 40 13 40 -2z m1937 -70 c-3 -3 -12 -4 -19 -1 -8 3 -5 6 6 6
11 1 17 -2 13 -5z m-2197 -194 c0 -5 -4 -10 -9 -10 -6 0 -13 5 -16 10 -3 6 1
10 9 10 9 0 16 -4 16 -10z m-190 -340 c0 -5 -2 -10 -4 -10 -3 0 -8 5 -11 10
-3 6 -1 10 4 10 6 0 11 -4 11 -10z m633 -527 c-3 -7 -9 -13 -13 -13 -4 0 -10
6 -13 13 -3 7 3 13 13 13 10 0 16 -6 13 -13z m-233 -2 c0 -9 -24 -21 -42 -21
-6 0 -6 6 2 15 14 16 40 20 40 6z m336 -6 c18 -14 18 -14 -5 -15 -16 0 -21 -4
-17 -15 6 -17 4 -18 -18 -9 -21 8 -21 24 0 24 10 0 14 6 10 15 -7 19 5 19 30
0z m-135 -22 c-5 -9 -16 -18 -25 -19 -16 -2 -13 9 9 32 14 17 27 6 16 -13z
m21 -15 c-7 -7 -12 -8 -12 -2 0 14 12 26 19 19 2 -3 -1 -11 -7 -17z m-82 -18
c-6 -11 -15 -18 -21 -15 -5 4 -9 1 -9 -4 0 -6 -4 -11 -10 -11 -18 0 -10 15 18
32 34 22 35 22 22 -2z m-535 -20 c-3 -5 -14 -10 -23 -9 -14 0 -13 2 3 9 27 11
27 11 20 0z m199 -45 c-6 -16 -24 -21 -24 -7 0 11 11 22 21 22 5 0 6 -7 3 -15z
m196 -30 c-7 -9 -15 -13 -19 -10 -3 3 1 10 9 15 21 14 24 12 10 -5z m160 -70
c0 -8 -7 -15 -15 -15 -9 0 -12 6 -9 15 4 8 10 15 15 15 5 0 9 -7 9 -15z m2418
-380 c-3 -3 -9 2 -12 12 -6 14 -5 15 5 6 7 -7 10 -15 7 -18z m-450 -131 l-3
-39 -5 47 c-3 26 -1 43 3 39 5 -5 7 -26 5 -47z m108 16 c-4 -24 -2 -40 4 -40
6 0 6 -9 0 -26 -6 -14 -10 -43 -10 -64 0 -21 -4 -41 -8 -44 -5 -3 -7 29 -5 72
5 91 12 142 20 142 3 0 3 -18 -1 -40z m167 15 c-3 -9 -8 -14 -10 -11 -3 3 -2
9 2 15 9 16 15 13 8 -4z m-20 -45 c-3 -12 -8 -19 -11 -16 -5 6 5 36 12 36 2 0
2 -9 -1 -20z m-256 -82 c-2 -13 -4 -5 -4 17 -1 22 1 32 4 23 2 -10 2 -28 0
-40z m213 -209 c-18 -33 -20 -19 -7 56 l12 70 3 -52 c2 -29 -2 -62 -8 -74z
m-134 -111 c-2 -57 -13 -148 -24 -203 -11 -55 -25 -136 -32 -180 -26 -164
-107 -405 -137 -405 -7 0 -19 -13 -28 -30 -9 -16 -20 -30 -25 -30 -13 0 -13
17 0 25 6 3 10 15 10 25 0 10 5 20 11 22 7 2 12 30 12 70 1 37 4 65 9 62 4 -3
8 3 8 14 0 10 9 27 20 37 16 14 19 26 14 52 -4 19 -2 39 5 47 6 7 9 21 5 30
-4 9 0 18 9 22 12 4 16 26 17 107 1 104 1 133 -3 177 -1 16 3 25 13 25 9 0 16
11 17 25 1 14 7 54 12 89 5 35 7 71 4 80 -4 12 -3 13 5 6 7 -6 15 -47 18 -90
4 -44 11 -89 15 -100 7 -16 8 -13 5 10 -2 17 1 36 7 43 6 8 12 35 13 60 4 56
13 112 19 112 3 0 3 -46 1 -102z m284 -21 c0 -8 -11 -19 -25 -25 -15 -7 -25
-8 -25 -2 0 6 7 10 15 10 9 0 18 7 21 15 8 19 14 19 14 2z m-70 -34 c0 -10 -7
-27 -15 -37 -8 -11 -15 -28 -15 -38 0 -10 -4 -18 -10 -18 -15 0 -12 16 10 57
10 20 17 40 14 45 -3 4 0 8 5 8 6 0 11 -8 11 -17z"/>
<path d="M3405 1450 c3 -5 10 -10 16 -10 5 0 9 5 9 10 0 6 -7 10 -16 10 -8 0
-12 -4 -9 -10z"/>
<path d="M3250 930 c0 -5 4 -10 9 -10 6 0 13 5 16 10 3 6 -1 10 -9 10 -9 0
-16 -4 -16 -10z"/>
<path d="M2655 4400 c-13 -6 -2 -7 30 -3 28 3 52 7 54 9 9 8 -65 2 -84 -6z"/>
<path d="M2850 4330 c0 -6 7 -10 15 -10 8 0 15 2 15 4 0 2 -7 6 -15 10 -8 3
-15 1 -15 -4z"/>
<path d="M1683 4283 c9 -2 23 -2 30 0 6 3 -1 5 -18 5 -16 0 -22 -2 -12 -5z"/>
<path d="M3406 3783 c-6 -14 -5 -15 5 -6 7 7 10 15 7 18 -3 3 -9 -2 -12 -12z"/>
<path d="M3421 3754 c0 -11 3 -14 6 -6 3 7 2 16 -1 19 -3 4 -6 -2 -5 -13z"/>
<path d="M1245 2699 c-11 -16 -1 -19 13 -3 7 8 8 14 3 14 -5 0 -13 -5 -16 -11z"/>
<path d="M1057 2593 c-10 -9 -9 -23 2 -23 5 0 11 7 15 15 5 15 -5 20 -17 8z"/>
<path d="M790 2552 c0 -5 14 -7 30 -4 17 2 30 6 30 8 0 2 -13 4 -30 4 -16 0
-30 -4 -30 -8z"/>
<path d="M1065 1893 c8 -48 67 -234 73 -228 2 2 -2 52 -9 112 -9 82 -17 113
-32 131 -29 32 -39 27 -32 -15z"/>
<path d="M1786 1675 c-8 -21 9 -61 30 -69 17 -6 43 18 44 41 0 13 -38 43 -56
43 -7 0 -14 -7 -18 -15z"/>
<path d="M1831 1094 c0 -11 3 -14 6 -6 3 7 2 16 -1 19 -3 4 -6 -2 -5 -13z"/>
<path d="M1881 1084 c0 -11 3 -14 6 -6 3 7 2 16 -1 19 -3 4 -6 -2 -5 -13z"/>
<path d="M3412 1060 c0 -14 2 -19 5 -12 2 6 2 18 0 25 -3 6 -5 1 -5 -13z"/>
<path d="M3402 990 c0 -19 2 -27 5 -17 2 9 2 25 0 35 -3 9 -5 1 -5 -18z"/>
<path d="M1768 503 c12 -2 30 -2 40 0 9 3 -1 5 -23 4 -22 0 -30 -2 -17 -4z"/>
<path d="M1240 494 c0 -12 73 -124 81 -124 5 0 9 -9 9 -20 0 -31 -13 -24 -33
18 -24 50 -44 75 -54 69 -4 -3 -7 -39 -5 -80 l4 -75 86 -43 c48 -23 91 -45 95
-47 5 -2 4 5 -2 17 -7 11 -16 21 -21 21 -6 0 -10 9 -10 20 0 31 13 23 34 -21
11 -22 28 -45 37 -50 17 -8 18 2 18 151 1 88 -2 160 -6 160 -5 0 -16 -17 -26
-38 -9 -20 -26 -48 -37 -62 l-20 -25 0 23 c0 12 4 22 9 22 10 0 56 69 50 74
-8 7 -209 16 -209 10z m165 -164 c3 -5 1 -10 -4 -10 -6 0 -11 5 -11 10 0 6 2
10 4 10 3 0 8 -4 11 -10z m-75 -70 c0 -5 -2 -10 -4 -10 -3 0 -8 5 -11 10 -3 6
-1 10 4 10 6 0 11 -4 11 -10z"/>
<path d="M1720 480 c-8 -5 -10 -10 -5 -10 6 0 17 5 25 10 8 5 11 10 5 10 -5 0
-17 -5 -25 -10z"/>
<path d="M1655 440 c-3 -5 -2 -10 4 -10 5 0 13 5 16 10 3 6 2 10 -4 10 -5 0
-13 -4 -16 -10z"/>
</g>
</svg>
